# Blender 4.1.1
# www.blender.org
mtllib concrete_fence.mtl
o fence
v 1.800000 0.973172 0.400000
v 1.800000 1.000000 0.502556
v 1.800000 0.973172 0.540000
v -2.000000 0.973172 0.540001
v -2.000000 0.973172 0.400001
v -2.000000 1.000000 0.297445
v -2.000000 0.973172 0.260001
v 1.800000 0.973172 0.260000
v -2.000000 0.000000 0.400001
v 1.800000 0.000000 0.297444
v 1.800000 0.000000 0.400000
v 1.800000 1.000000 0.400000
v -2.000000 1.000000 0.400001
v -2.000000 1.000000 0.502557
v -2.000000 0.000000 0.502557
v 1.800000 0.000000 0.502556
v 1.800000 1.000000 0.297444
v 1.800000 0.036828 0.400000
v -2.000000 0.036828 0.400001
v -2.000000 0.036828 0.260001
v -2.000000 0.000000 0.297445
v 1.800000 0.036828 0.540000
v 1.800000 0.036828 0.260000
v -2.000000 0.036828 0.540001
v 2.000000 0.000000 0.300000
v 2.000000 2.600000 0.300000
v 2.000000 2.600000 0.500000
v 2.000000 0.000000 0.500000
v 1.900000 0.000000 0.500000
v 1.900000 2.700000 0.500000
v 1.800000 2.600000 0.500000
v 1.800000 0.000000 0.500000
v 1.800000 2.600000 0.300000
v 1.800000 0.000000 0.300000
v 1.900000 0.000000 0.300000
v 1.900000 2.700000 0.300000
v 1.800000 1.973172 0.400000
v 1.800000 2.000000 0.502556
v 1.800000 1.973172 0.540000
v -2.000000 1.973172 0.540001
v -2.000000 1.973172 0.400001
v -2.000000 2.000000 0.297445
v -2.000000 1.973172 0.260001
v 1.800000 1.973172 0.260000
v -2.000000 1.000000 0.400001
v 1.800000 1.000000 0.297444
v 1.800000 1.000000 0.400000
v 1.800000 2.000000 0.400000
v -2.000000 2.000000 0.400001
v -2.000000 2.000000 0.502557
v -2.000000 1.000000 0.502557
v 1.800000 1.000000 0.502556
v 1.800000 2.000000 0.297444
v 1.800000 1.036828 0.400000
v -2.000000 1.036828 0.400001
v -2.000000 1.036828 0.260001
v -2.000000 1.000000 0.297445
v 1.800000 1.036828 0.540000
v 1.800000 1.036828 0.260000
v -2.000000 1.036828 0.540001
v 1.800000 2.973172 0.400000
v 1.800000 3.000000 0.502556
v 1.800000 2.973172 0.540000
v -2.000000 2.973172 0.540002
v -2.000000 2.973172 0.400002
v -2.000000 3.000000 0.297446
v -2.000000 2.973172 0.260002
v 1.800000 2.973172 0.260000
v -2.000000 2.000000 0.400001
v 1.800000 2.000000 0.297444
v 1.800000 2.000000 0.400000
v 1.800000 3.000000 0.400000
v -2.000000 3.000000 0.400002
v -2.000000 3.000000 0.502558
v -2.000000 2.000000 0.502557
v 1.800000 2.000000 0.502556
v 1.800000 3.000000 0.297444
v 1.800000 2.036828 0.400000
v -2.000000 2.036828 0.400001
v -2.000000 2.036828 0.260001
v -2.000000 2.000000 0.297445
v 1.800000 2.036828 0.540000
v 1.800000 2.036828 0.260000
v -2.000000 2.036828 0.540001
vn 1.0000 -0.0000 -0.0000
vn -0.0000 0.9521 0.3059
vn -0.0000 0.4569 0.8895
vn -1.0000 -0.0000 -0.0000
vn -0.0000 0.9521 -0.3059
vn -0.0000 0.4569 -0.8895
vn -0.0000 -1.0000 -0.0000
vn -0.0000 -0.9255 -0.3788
vn -0.0000 1.0000 -0.0000
vn -0.0000 -0.9255 0.3788
vn -0.0000 -0.3865 -0.9223
vn -0.0000 -0.3865 0.9223
vn 0.9239 0.3827 -0.0000
vn -0.0000 -0.0000 1.0000
vn -0.9239 0.3827 -0.0000
vn -0.0000 -0.0000 -1.0000
vn 0.7071 0.7071 -0.0000
vn -0.7071 0.7071 -0.0000
vt 0.345703 0.496647
vt 0.332884 0.500000
vt 0.328203 0.496647
vt 0.485156 0.650492
vt 0.960156 0.656250
vt 0.485156 0.656250
vt 0.158203 0.496647
vt 0.145384 0.500000
vt 0.140703 0.496647
vt 0.960156 0.624853
vt 0.485156 0.619095
vt 0.960156 0.619095
vt 0.960156 0.594851
vt 0.485156 0.607670
vt 0.485156 0.594851
vt 0.485156 0.637673
vt 0.960156 0.637673
vt 0.960156 0.650492
vt 0.960156 0.582031
vt 0.485156 0.582031
vt 0.171023 0.500000
vt 0.175703 0.496647
vt 0.358523 0.500000
vt 0.363203 0.496647
vt 0.358523 0.375000
vt 0.345703 0.379603
vt 0.345703 0.375000
vt 0.171023 0.375000
vt 0.158203 0.379603
vt 0.158203 0.375000
vt 0.897656 0.459690
vt 0.422656 0.453125
vt 0.897656 0.453125
vt 0.145384 0.375000
vt 0.897656 0.444065
vt 0.422656 0.437500
vt 0.897656 0.437500
vt 0.332884 0.375000
vt 0.363203 0.379603
vt 0.175703 0.379603
vt 0.475781 1.000000
vt 0.000781 0.882956
vt 0.475781 0.882956
vt 0.140703 0.379603
vt 0.475781 0.875000
vt 0.000781 0.757956
vt 0.475781 0.757956
vt 0.328203 0.379603
vt 0.101562 0.500000
vt 0.078125 0.171875
vt 0.101562 0.171875
vt 0.012695 0.162500
vt 0.000195 0.487500
vt 0.000195 0.162500
vt 0.132812 0.500000
vt 0.109375 0.171875
vt 0.132812 0.171875
vt 0.051758 0.162500
vt 0.039258 0.487500
vt 0.039258 0.162500
vt 0.447070 0.373047
vt 0.434570 0.398047
vt 0.434570 0.373047
vt 0.460938 0.382812
vt 0.484375 0.398438
vt 0.460938 0.398438
vt 0.515625 0.398438
vt 0.492188 0.382812
vt 0.515625 0.382812
vt 0.422070 0.398047
vt 0.422070 0.373047
vt 0.064258 0.487500
vt 0.064258 0.162500
vt 0.025195 0.487500
vt 0.025195 0.162500
vt 0.205078 0.496647
vt 0.192259 0.500000
vt 0.187578 0.496647
vt 0.485156 0.744242
vt 0.960156 0.750000
vt 0.485156 0.750000
vt 0.251953 0.496647
vt 0.239134 0.500000
vt 0.234453 0.496647
vt 0.960156 0.718603
vt 0.485156 0.712845
vt 0.960156 0.712845
vt 0.960156 0.555788
vt 0.485156 0.568608
vt 0.485156 0.555788
vt 0.485156 0.731423
vt 0.960156 0.731423
vt 0.960156 0.744242
vt 0.960156 0.542969
vt 0.485156 0.542969
vt 0.264773 0.500000
vt 0.269453 0.496647
vt 0.217898 0.500000
vt 0.222578 0.496647
vt 0.217898 0.375000
vt 0.205078 0.379603
vt 0.205078 0.375000
vt 0.264773 0.375000
vt 0.251953 0.379603
vt 0.251953 0.375000
vt 0.897656 0.428440
vt 0.422656 0.421875
vt 0.897656 0.421875
vt 0.239134 0.375000
vt 0.897656 0.412815
vt 0.422656 0.406250
vt 0.897656 0.406250
vt 0.192259 0.375000
vt 0.222578 0.379603
vt 0.269453 0.379603
vt 0.960156 1.000000
vt 0.485156 0.882956
vt 0.960156 0.882956
vt 0.234453 0.379603
vt 0.960156 0.875000
vt 0.485156 0.757956
vt 0.960156 0.757956
vt 0.187578 0.379603
vt 0.392578 0.496647
vt 0.379759 0.500000
vt 0.375078 0.496647
vt 0.485156 0.697367
vt 0.960156 0.703125
vt 0.485156 0.703125
vt 0.298828 0.496647
vt 0.286009 0.500000
vt 0.281328 0.496647
vt 0.960156 0.671728
vt 0.485156 0.665970
vt 0.960156 0.665970
vt 0.960156 0.516726
vt 0.485156 0.529545
vt 0.485156 0.516726
vt 0.485156 0.684548
vt 0.960156 0.684548
vt 0.960156 0.697367
vt 0.960156 0.503906
vt 0.485156 0.503906
vt 0.311648 0.500000
vt 0.316328 0.496647
vt 0.405398 0.500000
vt 0.410078 0.496647
vt 0.405398 0.375000
vt 0.392578 0.379603
vt 0.392578 0.375000
vt 0.311648 0.375000
vt 0.298828 0.379603
vt 0.298828 0.375000
vt 0.897656 0.490941
vt 0.422656 0.484375
vt 0.897656 0.484375
vt 0.286009 0.375000
vt 0.897656 0.475316
vt 0.422656 0.468750
vt 0.897656 0.468750
vt 0.379759 0.375000
vt 0.410078 0.379603
vt 0.316328 0.379603
vt 0.475781 0.750000
vt 0.000781 0.632956
vt 0.475781 0.632956
vt 0.281328 0.379603
vt 0.475781 0.625000
vt 0.000781 0.507956
vt 0.475781 0.507956
vt 0.375078 0.379603
vt 0.345703 0.500000
vt 0.158203 0.500000
vt 0.485156 0.624853
vt 0.960156 0.607670
vt 0.422656 0.459690
vt 0.422656 0.444065
vt 0.000781 1.000000
vt 0.000781 0.875000
vt 0.205078 0.500000
vt 0.251953 0.500000
vt 0.485156 0.718603
vt 0.960156 0.568608
vt 0.422656 0.428440
vt 0.422656 0.412815
vt 0.485156 1.000000
vt 0.485156 0.875000
vt 0.392578 0.500000
vt 0.298828 0.500000
vt 0.485156 0.671728
vt 0.960156 0.529545
vt 0.422656 0.490941
vt 0.422656 0.475316
vt 0.000781 0.750000
vt 0.000781 0.625000
vt 0.078125 0.500000
vt 0.012695 0.500000
vt 0.109375 0.500000
vt 0.051758 0.500000
vt 0.447070 0.398047
vt 0.484375 0.382812
vt 0.492188 0.398438
s 1
g fence_concrete_fence.001
usemtl concrete_fence.001
f 1/1/1 2/2/1 3/3/1
f 2/4/2 4/5/3 3/6/3
f 5/7/4 6/8/4 7/9/4
f 6/10/5 8/11/6 7/12/6
f 9/13/7 10/14/8 11/15/7
f 12/16/9 6/10/5 13/17/9
f 2/4/2 13/17/9 14/18/2
f 15/19/10 11/15/7 16/20/10
f 14/21/4 5/7/4 4/22/4
f 17/23/1 1/1/1 8/24/1
f 10/25/1 18/26/1 11/27/1
f 15/28/4 19/29/4 9/30/4
f 20/31/11 10/32/8 21/33/8
f 19/29/4 21/34/4 9/30/4
f 22/35/12 15/36/10 16/37/10
f 18/26/1 16/38/1 11/27/1
f 8/24/1 18/26/1 23/39/1
f 4/22/4 19/29/4 24/40/4
f 7/41/6 23/42/11 20/43/11
f 5/7/4 20/44/4 19/29/4
f 3/45/3 24/46/12 22/47/12
f 1/1/1 22/48/1 18/26/1
f 26/49/13 28/50/1 25/51/1
f 29/52/14 31/53/14 32/54/14
f 31/55/15 34/56/4 32/57/4
f 35/58/16 26/59/16 25/60/16
f 32/61/7 35/62/7 29/63/7
f 27/64/13 36/65/17 30/66/17
f 30/67/18 33/68/15 31/69/15
f 29/63/7 25/70/7 28/71/7
f 33/72/16 35/58/16 34/73/16
f 27/74/14 29/52/14 28/75/14
f 37/76/1 38/77/1 39/78/1
f 38/79/2 40/80/3 39/81/3
f 41/82/4 42/83/4 43/84/4
f 42/85/5 44/86/6 43/87/6
f 45/88/7 46/89/8 47/90/7
f 48/91/9 42/85/5 49/92/9
f 38/79/2 49/92/9 50/93/2
f 51/94/10 47/90/7 52/95/10
f 50/96/4 41/82/4 40/97/4
f 53/98/1 37/76/1 44/99/1
f 46/100/1 54/101/1 47/102/1
f 51/103/4 55/104/4 45/105/4
f 56/106/11 46/107/8 57/108/8
f 55/104/4 57/109/4 45/105/4
f 58/110/12 51/111/10 52/112/10
f 54/101/1 52/113/1 47/102/1
f 44/99/1 54/101/1 59/114/1
f 40/97/4 55/104/4 60/115/4
f 43/116/6 59/117/11 56/118/11
f 41/82/4 56/119/4 55/104/4
f 39/120/3 60/121/12 58/122/12
f 37/76/1 58/123/1 54/101/1
f 61/124/1 62/125/1 63/126/1
f 62/127/2 64/128/3 63/129/3
f 65/130/4 66/131/4 67/132/4
f 66/133/5 68/134/6 67/135/6
f 69/136/7 70/137/8 71/138/7
f 72/139/9 66/133/5 73/140/9
f 62/127/2 73/140/9 74/141/2
f 75/142/10 71/138/7 76/143/10
f 74/144/4 65/130/4 64/145/4
f 77/146/1 61/124/1 68/147/1
f 70/148/1 78/149/1 71/150/1
f 75/151/4 79/152/4 69/153/4
f 80/154/11 70/155/8 81/156/8
f 79/152/4 81/157/4 69/153/4
f 82/158/12 75/159/10 76/160/10
f 78/149/1 76/161/1 71/150/1
f 68/147/1 78/149/1 83/162/1
f 64/145/4 79/152/4 84/163/4
f 67/164/6 83/165/11 80/166/11
f 65/130/4 80/167/4 79/152/4
f 63/168/3 84/169/12 82/170/12
f 61/124/1 82/171/1 78/149/1
f 1/1/1 12/172/1 2/2/1
f 2/4/2 14/18/2 4/5/3
f 5/7/4 13/173/4 6/8/4
f 6/10/5 17/174/5 8/11/6
f 9/13/7 21/175/8 10/14/8
f 12/16/9 17/174/5 6/10/5
f 2/4/2 12/16/9 13/17/9
f 15/19/10 9/13/7 11/15/7
f 14/21/4 13/173/4 5/7/4
f 17/23/1 12/172/1 1/1/1
f 10/25/1 23/39/1 18/26/1
f 15/28/4 24/40/4 19/29/4
f 20/31/11 23/176/11 10/32/8
f 19/29/4 20/44/4 21/34/4
f 22/35/12 24/177/12 15/36/10
f 18/26/1 22/48/1 16/38/1
f 8/24/1 1/1/1 18/26/1
f 4/22/4 5/7/4 19/29/4
f 7/41/6 8/178/6 23/42/11
f 5/7/4 7/9/4 20/44/4
f 3/45/3 4/179/3 24/46/12
f 1/1/1 3/3/1 22/48/1
f 37/76/1 48/180/1 38/77/1
f 38/79/2 50/93/2 40/80/3
f 41/82/4 49/181/4 42/83/4
f 42/85/5 53/182/5 44/86/6
f 45/88/7 57/183/8 46/89/8
f 48/91/9 53/182/5 42/85/5
f 38/79/2 48/91/9 49/92/9
f 51/94/10 45/88/7 47/90/7
f 50/96/4 49/181/4 41/82/4
f 53/98/1 48/180/1 37/76/1
f 46/100/1 59/114/1 54/101/1
f 51/103/4 60/115/4 55/104/4
f 56/106/11 59/184/11 46/107/8
f 55/104/4 56/119/4 57/109/4
f 58/110/12 60/185/12 51/111/10
f 54/101/1 58/123/1 52/113/1
f 44/99/1 37/76/1 54/101/1
f 40/97/4 41/82/4 55/104/4
f 43/116/6 44/186/6 59/117/11
f 41/82/4 43/84/4 56/119/4
f 39/120/3 40/187/3 60/121/12
f 37/76/1 39/78/1 58/123/1
f 61/124/1 72/188/1 62/125/1
f 62/127/2 74/141/2 64/128/3
f 65/130/4 73/189/4 66/131/4
f 66/133/5 77/190/5 68/134/6
f 69/136/7 81/191/8 70/137/8
f 72/139/9 77/190/5 66/133/5
f 62/127/2 72/139/9 73/140/9
f 75/142/10 69/136/7 71/138/7
f 74/144/4 73/189/4 65/130/4
f 77/146/1 72/188/1 61/124/1
f 70/148/1 83/162/1 78/149/1
f 75/151/4 84/163/4 79/152/4
f 80/154/11 83/192/11 70/155/8
f 79/152/4 80/167/4 81/157/4
f 82/158/12 84/193/12 75/159/10
f 78/149/1 82/171/1 76/161/1
f 68/147/1 61/124/1 78/149/1
f 64/145/4 65/130/4 79/152/4
f 67/164/6 68/194/6 83/165/11
f 65/130/4 67/132/4 80/167/4
f 63/168/3 64/195/3 84/169/12
f 61/124/1 63/126/1 82/171/1
f 26/49/13 27/196/13 28/50/1
f 29/52/14 30/197/14 31/53/14
f 31/55/15 33/198/15 34/56/4
f 35/58/16 36/199/16 26/59/16
f 32/61/7 34/200/7 35/62/7
f 27/64/13 26/201/13 36/65/17
f 30/67/18 36/202/18 33/68/15
f 29/63/7 35/62/7 25/70/7
f 33/72/16 36/199/16 35/58/16
f 27/74/14 30/197/14 29/52/14
